<svg xmlns="http://www.w3.org/2000/svg" xmlns:xlink="http://www.w3.org/1999/xlink" width="500" zoomAndPan="magnify" viewBox="0 0 375 374.999991" height="500" preserveAspectRatio="xMidYMid meet" version="1.0"><defs><clipPath id="209615c648"><path d="M 11 28 L 337.621094 28 L 337.621094 355 L 11 355 Z M 11 28 " clip-rule="nonzero"/></clipPath></defs><g clip-path="url(#209615c648)"><path fill="#ff66c4" d="M 303.691406 91.972656 C 301.75 89.449219 299.734375 86.988281 297.652344 84.582031 C 295.566406 82.179688 293.410156 79.839844 291.1875 77.5625 C 288.964844 75.28125 286.675781 73.074219 284.324219 70.929688 C 281.972656 68.785156 279.558594 66.714844 277.085938 64.710938 C 274.609375 62.710938 272.078125 60.78125 269.492188 58.929688 C 266.90625 57.074219 264.265625 55.296875 261.574219 53.597656 C 258.882812 51.902344 256.144531 50.28125 253.359375 48.742188 C 250.574219 47.207031 247.742188 45.75 244.871094 44.378906 C 242 43.003906 239.089844 41.71875 236.144531 40.515625 C 233.199219 39.316406 230.21875 38.199219 227.207031 37.171875 C 224.191406 36.144531 221.152344 35.207031 218.085938 34.359375 C 215.019531 33.511719 211.929688 32.753906 208.816406 32.085938 C 205.707031 31.417969 202.578125 30.839844 199.433594 30.355469 C 196.285156 29.871094 193.128906 29.480469 189.960938 29.179688 C 186.792969 28.882812 183.617188 28.675781 180.4375 28.5625 C 177.257812 28.449219 174.074219 28.429688 170.894531 28.503906 C 167.710938 28.578125 164.535156 28.742188 161.363281 29.003906 C 158.191406 29.261719 155.03125 29.617188 151.878906 30.0625 C 148.726562 30.503906 145.589844 31.042969 142.472656 31.671875 C 139.351562 32.300781 136.253906 33.019531 133.175781 33.832031 C 130.097656 34.640625 127.046875 35.542969 124.023438 36.53125 C 120.996094 37.519531 118.003906 38.597656 115.042969 39.761719 C 112.082031 40.929688 109.15625 42.179688 106.265625 43.515625 C 103.378906 44.851562 100.53125 46.273438 97.726562 47.777344 C 94.921875 49.28125 92.164062 50.863281 89.449219 52.527344 C 86.738281 54.195312 84.078125 55.9375 81.46875 57.757812 C 78.859375 59.578125 76.304688 61.476562 73.804688 63.445312 C 71.304688 65.417969 68.867188 67.460938 66.488281 69.574219 C 64.109375 71.6875 61.792969 73.871094 59.542969 76.121094 C 57.292969 78.371094 55.109375 80.683594 52.992188 83.0625 C 50.878906 85.4375 48.832031 87.878906 46.859375 90.375 C 44.886719 92.871094 42.992188 95.425781 41.167969 98.035156 C 39.34375 100.644531 37.601562 103.304688 35.933594 106.015625 C 34.265625 108.726562 32.679688 111.484375 31.175781 114.289062 C 29.671875 117.089844 28.25 119.9375 26.910156 122.824219 C 25.570312 125.710938 24.320312 128.636719 23.152344 131.597656 C 21.984375 134.558594 20.90625 137.550781 19.914062 140.574219 C 18.921875 143.601562 18.023438 146.652344 17.210938 149.726562 C 16.398438 152.804688 15.675781 155.902344 15.042969 159.023438 C 14.414062 162.140625 13.875 165.277344 13.425781 168.429688 C 12.980469 171.578125 12.625 174.742188 12.363281 177.914062 C 12.101562 181.085938 11.933594 184.261719 11.859375 187.441406 C 11.785156 190.625 11.800781 193.804688 11.914062 196.984375 C 12.023438 200.167969 12.226562 203.339844 12.523438 206.511719 C 12.820312 209.679688 13.210938 212.835938 13.695312 215.980469 C 14.175781 219.128906 14.75 222.257812 15.417969 225.367188 C 16.082031 228.480469 16.839844 231.570312 17.6875 234.640625 C 18.53125 237.707031 19.46875 240.746094 20.496094 243.761719 C 21.519531 246.773438 22.632812 249.753906 23.832031 252.699219 C 25.03125 255.648438 26.316406 258.558594 27.6875 261.429688 C 29.058594 264.304688 30.511719 267.132812 32.050781 269.921875 C 33.585938 272.707031 35.203125 275.445312 36.898438 278.140625 C 38.597656 280.832031 40.371094 283.472656 42.222656 286.058594 C 44.074219 288.648438 46 291.179688 48.003906 293.65625 C 50.003906 296.128906 52.074219 298.546875 54.214844 300.898438 C 56.359375 303.253906 58.566406 305.542969 60.84375 307.765625 C 63.121094 309.992188 65.460938 312.144531 67.863281 314.234375 C 70.265625 316.320312 72.726562 318.335938 75.246094 320.277344 C 77.769531 322.222656 80.34375 324.089844 82.972656 325.878906 C 85.605469 327.671875 88.285156 329.386719 91.015625 331.019531 C 93.746094 332.65625 96.523438 334.207031 99.34375 335.679688 C 102.164062 337.152344 105.027344 338.539062 107.929688 339.84375 C 110.835938 341.148438 113.773438 342.367188 116.746094 343.496094 C 119.722656 344.628906 122.726562 345.671875 125.761719 346.628906 C 128.800781 347.582031 131.859375 348.449219 134.945312 349.226562 C 138.03125 350 141.140625 350.6875 144.265625 351.28125 C 147.394531 351.875 150.535156 352.375 153.691406 352.785156 C 156.847656 353.195312 160.011719 353.511719 163.1875 353.738281 C 166.363281 353.960938 169.539062 354.089844 172.722656 354.128906 C 175.90625 354.167969 179.085938 354.113281 182.265625 353.960938 C 185.445312 353.8125 188.617188 353.570312 191.78125 353.238281 C 194.945312 352.902344 198.097656 352.476562 201.238281 351.957031 C 204.378906 351.4375 207.5 350.824219 210.605469 350.121094 C 213.707031 349.417969 216.789062 348.625 219.847656 347.742188 C 222.902344 346.859375 225.933594 345.886719 228.933594 344.828125 C 231.933594 343.765625 234.902344 342.617188 237.835938 341.382812 C 240.769531 340.148438 243.664062 338.828125 246.519531 337.425781 C 249.375 336.019531 252.1875 334.535156 254.953125 332.964844 C 257.722656 331.394531 260.445312 329.746094 263.117188 328.015625 C 265.789062 326.289062 268.40625 324.480469 270.972656 322.597656 C 273.539062 320.714844 276.046875 318.761719 278.5 316.730469 C 280.949219 314.703125 283.339844 312.601562 285.667969 310.433594 C 287.996094 308.261719 290.261719 306.027344 292.457031 303.722656 C 294.65625 301.421875 296.78125 299.058594 298.839844 296.628906 C 300.898438 294.203125 302.886719 291.71875 304.796875 289.171875 C 306.710938 286.628906 308.546875 284.03125 310.308594 281.382812 C 312.070312 278.730469 313.75 276.027344 315.351562 273.28125 C 316.957031 270.53125 318.476562 267.734375 319.914062 264.894531 C 321.351562 262.058594 322.707031 259.179688 323.976562 256.261719 C 325.246094 253.339844 326.429688 250.386719 327.523438 247.402344 C 328.621094 244.414062 329.628906 241.394531 330.546875 238.347656 C 331.46875 235.300781 332.296875 232.230469 333.039062 229.136719 C 333.777344 226.039062 334.425781 222.925781 334.980469 219.792969 C 335.539062 216.660156 336.003906 213.511719 336.375 210.351562 C 336.746094 207.191406 337.027344 204.019531 337.214844 200.84375 C 337.398438 197.667969 337.492188 194.488281 337.492188 191.304688 C 337.492188 186.851562 337.304688 182.40625 336.941406 177.964844 C 336.574219 173.527344 336.027344 169.113281 335.296875 164.71875 C 334.570312 160.324219 333.664062 155.96875 332.578125 151.648438 C 331.492188 147.328125 330.230469 143.0625 328.796875 138.84375 C 327.363281 134.628906 325.757812 130.480469 323.984375 126.394531 C 322.207031 122.308594 320.269531 118.304688 318.167969 114.378906 C 316.0625 110.453125 313.804688 106.621094 311.386719 102.878906 C 308.972656 99.136719 306.40625 95.503906 303.691406 91.972656 Z M 231.792969 213.628906 C 231.792969 221.207031 223.453125 230.203125 211.488281 235.519531 C 209.941406 236.214844 208.3125 236.832031 206.617188 237.4375 C 198.277344 240.25 189.859375 241.023438 182.886719 239.589844 C 176.425781 238.277344 172.078125 235.230469 170.675781 231.042969 C 170.347656 230.09375 170.179688 229.117188 170.175781 228.113281 C 170.03125 219.539062 180.550781 209.347656 194.757812 204.34375 L 195.335938 204.132812 C 200.898438 202.203125 206.625 201.261719 212.511719 201.3125 C 213.242188 201.308594 213.871094 201.058594 214.40625 200.5625 C 214.929688 200.046875 215.191406 199.421875 215.191406 198.683594 L 215.191406 145.511719 C 215.195312 145.324219 215.175781 145.136719 215.136719 144.949219 C 215.097656 144.765625 215.042969 144.585938 214.964844 144.414062 C 214.886719 144.242188 214.792969 144.078125 214.679688 143.925781 C 214.566406 143.773438 214.441406 143.636719 214.296875 143.511719 C 214.15625 143.386719 214.003906 143.277344 213.835938 143.1875 C 213.671875 143.097656 213.496094 143.023438 213.316406 142.96875 C 213.136719 142.914062 212.949219 142.882812 212.761719 142.867188 C 212.574219 142.851562 212.386719 142.859375 212.199219 142.886719 L 144.738281 152.328125 C 144.421875 152.371094 144.125 152.472656 143.84375 152.625 C 143.566406 152.777344 143.320312 152.972656 143.113281 153.214844 C 142.90625 153.457031 142.746094 153.726562 142.636719 154.027344 C 142.527344 154.328125 142.476562 154.636719 142.480469 154.953125 L 142.480469 229.175781 C 142.136719 233.050781 139.683594 237.386719 135.558594 241.363281 C 130.261719 246.238281 124.1875 249.785156 117.34375 252.015625 C 104.777344 256.269531 91.839844 255.703125 85.144531 250.597656 C 83.386719 249.324219 82.144531 247.664062 81.414062 245.621094 C 79.996094 241.429688 81.597656 236.425781 85.929688 231.410156 C 90.605469 226.039062 97.75 221.535156 106.089844 218.722656 C 111.386719 216.898438 116.835938 215.953125 122.4375 215.886719 L 123.28125 215.886719 C 123.628906 215.886719 123.964844 215.820312 124.285156 215.6875 C 124.605469 215.554688 124.890625 215.363281 125.136719 215.117188 C 125.382812 214.871094 125.574219 214.589844 125.707031 214.265625 C 125.839844 213.945312 125.90625 213.609375 125.90625 213.261719 L 125.90625 119.523438 L 231.792969 104.632812 Z M 231.792969 213.628906 " fill-opacity="1" fill-rule="nonzero"/></g></svg>